<?xml version="1.0" encoding="utf-8"?>
<!-- Generator: Adobe Illustrator 22.1.0, SVG Export Plug-In . SVG Version: 6.00 Build 0)  -->
<svg version="1.1" id="图层_1" xmlns="http://www.w3.org/2000/svg" xmlns:xlink="http://www.w3.org/1999/xlink" x="0px" y="0px"
	 viewBox="0 0 100 83" style="enable-background:new 0 0 100 83;" xml:space="preserve">
<style type="text/css">
	.st0{fill:#191919;}
	.st1{filter:url(#Adobe_OpacityMaskFilter);}
	.st2{fill:#FFFFFF;}
	.st3{mask:url(#mask-2_1_);fill:#070707;}
	.st4{fill:#020102;}
	.st5{fill:#222222;}
	.st6{fill:#242424;}
	.st7{opacity:0.5;fill:#EBEBEB;}
</style>
<title>Group 13</title>
<desc>Created with Sketch.</desc>
<g id="icon">
	<g id="Group-13">
		<path id="Fill-1" class="st0" d="M50.1,54h-7.6c0,0,2.8,8.2,0.8,17.1C41.4,80,40,80,40,80h10.1h0.7H61c0,0-1.4,0-3.4-8.9
			C55.7,62.2,58.5,54,58.5,54h-7.6H50.1z"/>
		<g id="Group-5" transform="translate(27.000000, 77.000000)">
			<g id="Clip-4">
			</g>
			<defs>
				<filter id="Adobe_OpacityMaskFilter" filterUnits="userSpaceOnUse" x="0.7" y="0.7" width="44.7" height="5.3">
					<feColorMatrix  type="matrix" values="1 0 0 0 0  0 1 0 0 0  0 0 1 0 0  0 0 0 1 0"/>
				</filter>
			</defs>
			<mask maskUnits="userSpaceOnUse" x="0.7" y="0.7" width="44.7" height="5.3" id="mask-2_1_">
				<g class="st1">
					<polygon id="path-1_1_" class="st2" points="0.7,0.7 45.3,0.7 45.3,6 0.7,6 					"/>
				</g>
			</mask>
			<path id="Fill-3" class="st3" d="M45.3,4.2c0,1-0.8,1.8-1.8,1.8H2.4c-1,0-1.8-0.8-1.8-1.8V2.4c0-1,0.8-1.8,1.8-1.8h41.1
				c1,0,1.8,0.8,1.8,1.8V4.2z"/>
		</g>
		<path id="Fill-6" class="st2" d="M98.6,68H0.4C0.2,68,0,67.8,0,67.6v-61C0,3.5,2.5,1,5.5,1h87.9C96.5,1,99,3.5,99,6.6v61
			C99,67.8,98.8,68,98.6,68"/>
		<path id="Fill-8" class="st4" d="M98.6,68H0.4C0.2,68,0,67.8,0,67.6v-61C0,3.5,2.5,1,5.5,1h87.9C96.5,1,99,3.5,99,6.6v61
			C99,67.8,98.8,68,98.6,68"/>
		<g id="Group-12">
			<path id="Fill-10" class="st5" d="M0,67c0,0,0-21.1,0-63.4C0,1.6,1.6,0,3.5,0h93c1.9,0,3.5,1.6,3.5,3.6V67C100,67,66.7,67,0,67z"
				/>
		</g>
		<polygon id="Fill-13" class="st2" points="3,63 96,63 96,5 3,5 		"/>
		<path id="Fill-19" class="st6" d="M1.7,66.6C0.8,66.6,0,65.9,0,65v2.7C0,67.9,0.2,68,0.3,68h10.1l0.5-1.4H1.7z"/>
		<path id="Fill-20" class="st6" d="M98.3,66.6c0.9,0,1.7-0.7,1.7-1.6v2.7c0,0.2-0.2,0.3-0.3,0.3H89.5L89,66.6H98.3z"/>
		<g id="Group" transform="translate(8.000000, 10.000000)">
			<rect id="Fill-21" class="st7" width="40" height="5"/>
			<rect id="Fill-22" y="7" class="st7" width="40" height="5"/>
			<rect id="Fill-23" y="14" class="st7" width="40" height="5"/>
			<rect id="Fill-24" y="21" class="st7" width="40" height="5"/>
			<rect id="Fill-25" y="28" class="st7" width="40" height="5"/>
			<rect id="Fill-26" x="44" class="st7" width="40" height="28"/>
			<rect id="Fill-27" x="44" y="32" class="st7" width="40" height="16"/>
			<rect id="Fill-29" y="36" class="st7" width="40" height="12"/>
		</g>
	</g>
</g>
</svg>
