<?xml version="1.0" encoding="utf-8"?>
<!-- Generator: Adobe Illustrator 22.1.0, SVG Export Plug-In . SVG Version: 6.00 Build 0)  -->
<svg version="1.1" id="图层_1" xmlns="http://www.w3.org/2000/svg" xmlns:xlink="http://www.w3.org/1999/xlink" x="0px" y="0px"
	 viewBox="0 0 26 26" style="enable-background:new 0 0 26 26;" xml:space="preserve">
<style type="text/css">
	.st0{fill:#F63949;}
	.st1{fill:#FFFFFF;}
</style>
<title>Group 17</title>
<desc>Created with Sketch.</desc>
<g id="icon">
	<g id="Group-17">
		<circle id="Oval" class="st0" cx="13" cy="13" r="13"/>
		<g id="Group-14" transform="translate(5.000000, 6.000000)">
			<g id="Page-1" transform="translate(0.500000, 0.000000)">
				<path id="Fill-1" class="st1" d="M13.5,15c-0.4,0-0.8-0.1-1.1-0.4l-12-12C-0.1,2-0.1,1,0.4,0.4C1-0.1,2-0.1,2.6,0.4l12,12
					c0.6,0.6,0.6,1.5,0,2.1C14.3,14.9,13.9,15,13.5,15"/>
				<path id="Fill-3" class="st1" d="M1.5,15c-0.4,0-0.8-0.1-1.1-0.4c-0.6-0.6-0.6-1.5,0-2.1l12-12c0.6-0.6,1.5-0.6,2.1,0
					c0.6,0.6,0.6,1.5,0,2.1l-12,12C2.3,14.9,1.9,15,1.5,15"/>
			</g>
		</g>
	</g>
</g>
</svg>
