<?xml version="1.0" encoding="utf-8"?>
<!-- Generator: Adobe Illustrator 22.1.0, SVG Export Plug-In . SVG Version: 6.00 Build 0)  -->
<svg version="1.1" id="图层_1" xmlns="http://www.w3.org/2000/svg" xmlns:xlink="http://www.w3.org/1999/xlink" x="0px" y="0px"
	 viewBox="0 0 26 26" style="enable-background:new 0 0 26 26;" xml:space="preserve">
<style type="text/css">
	.st0{fill:#FFAC41;}
	.st1{fill:#FFFFFF;}
</style>
<title>Group 18</title>
<desc>Created with Sketch.</desc>
<g id="Group-3">
	<path id="Fill-1" class="st0" d="M26,13c0,7.2-5.8,13-13,13S0,20.2,0,13S5.8,0,13,0S26,5.8,26,13"/>
</g>
<path id="Fill-4" class="st1" d="M13,21.4c-0.8,0-1.4-0.6-1.4-1.4c0-0.8,0.6-1.4,1.4-1.4c0.8,0,1.4,0.6,1.4,1.4
	C14.4,20.8,13.8,21.4,13,21.4"/>
<path id="Fill-6" class="st1" d="M13.5,17.1h-1.1L11,6.5C11,5.6,11.7,4.6,13,4.6c1.3,0,2.1,1,2,1.9L13.5,17.1z"/>
</svg>
