<?xml version="1.0" encoding="utf-8"?>
<!-- Generator: Adobe Illustrator 22.1.0, SVG Export Plug-In . SVG Version: 6.00 Build 0)  -->
<svg version="1.1" id="图层_1" xmlns="http://www.w3.org/2000/svg" xmlns:xlink="http://www.w3.org/1999/xlink" x="0px" y="0px"
	 viewBox="0 0 30 30" style="enable-background:new 0 0 30 30;" xml:space="preserve">
<style type="text/css">
	.st0{fill:#F5F5F5;}
	.st1{fill:#364960;}
</style>
<title>Page 1</title>
<desc>Created with Sketch.</desc>
<g id="修改">
	<g id="柱状图" transform="translate(-1740.000000, -140.000000)">
		<g id="Page-1" transform="translate(1740.000000, 140.000000)">
			<path id="Fill-1" class="st0" d="M28.9,30H1.1C0.5,30,0,29.5,0,28.9V1.1C0,0.5,0.5,0,1.1,0h27.9C29.5,0,30,0.5,30,1.1v27.9
				C30,29.5,29.5,30,28.9,30"/>
			<g id="Group-4" transform="translate(8.000000, 7.000000)">
				<polygon id="Fill-4" class="st1" points="0,15 13,15 13,13.5 0,13.5 				"/>
				<polygon id="Fill-6" class="st1" points="7.1,11.9 4.1,4.7 2.5,8.5 0,8.5 0,7 1.5,7 4,0.8 6.9,7.7 7.5,6 13,6 13,7.5 8.6,7.5 
									"/>
			</g>
		</g>
	</g>
</g>
</svg>
