<?xml version="1.0" encoding="utf-8"?>
<!-- Generator: Adobe Illustrator 22.1.0, SVG Export Plug-In . SVG Version: 6.00 Build 0)  -->
<svg version="1.1" id="图层_1" xmlns="http://www.w3.org/2000/svg" xmlns:xlink="http://www.w3.org/1999/xlink" x="0px" y="0px"
	 viewBox="0 0 30 30" style="enable-background:new 0 0 30 30;" xml:space="preserve">
<style type="text/css">
	.st0{fill:#F5F5F5;}
	.st1{fill:#364960;}
</style>
<title>Page 1</title>
<desc>Created with Sketch.</desc>
<g id="修改">
	<g id="柱状图" transform="translate(-1708.000000, -140.000000)">
		<g id="Page-1" transform="translate(1708.000000, 140.000000)">
			<g id="Group-3">
				<path id="Fill-1" class="st0" d="M1.1,30C0.5,30,0,29.5,0,28.9V1.1C0,0.5,0.5,0,1.1,0h27.9C29.5,0,30,0.5,30,1.1v27.9
					c0,0.6-0.5,1.1-1.1,1.1H1.1z"/>
				<g id="Group-6" transform="translate(8.000000, 8.000000)">
					<polygon id="Fill-4" class="st1" points="0,14.8 13,14.8 13,13.3 0,13.3 					"/>
					<polygon id="Fill-6" class="st1" points="0,11.5 3,11.5 3,0.5 0,0.5 					"/>
					<polygon id="Fill-7" class="st1" points="5,11.5 8,11.5 8,4.5 5,4.5 					"/>
					<polygon id="Fill-8" class="st1" points="10,11.5 13,11.5 13,7.5 10,7.5 					"/>
				</g>
			</g>
		</g>
	</g>
</g>
</svg>
